<svg xmlns="http://www.w3.org/2000/svg" xmlns:xlink="http://www.w3.org/1999/xlink" width="800" zoomAndPan="magnify" viewBox="0 0 600 299.999988" height="400" preserveAspectRatio="xMidYMid meet" version="1.0"><defs><g/></defs><g fill="#ffffff" fill-opacity="1"><g transform="translate(9.167528, 233.426612)"><g><path d="M 53.515625 2.636719 C 62.75 2.636719 70.097656 0.566406 75.75 -1.320312 L 71.226562 -21.480469 C 68.402344 -20.351562 64.257812 -19.21875 60.863281 -19.21875 C 51.441406 -19.21875 46.542969 -24.875 46.542969 -36.933594 L 46.542969 -83.664062 L 72.546875 -83.664062 L 72.546875 -105.523438 L 46.542969 -105.523438 L 46.542969 -133.976562 L 23.554688 -133.976562 L 20.351562 -105.523438 L 3.957031 -104.203125 L 3.957031 -83.664062 L 18.84375 -83.664062 L 18.84375 -36.933594 C 18.84375 -13.378906 28.453125 2.636719 53.515625 2.636719 Z M 53.515625 2.636719 "/></g></g></g><g fill="#ffffff" fill-opacity="1"><g transform="translate(88.300248, 233.426612)"><g/></g></g><g fill="#ffffff" fill-opacity="1"><g transform="translate(131.069629, 233.426612)"><g><path d="M 45.035156 2.636719 C 72.546875 2.636719 87.058594 -12.25 87.058594 -30.714844 C 87.058594 -50.3125 71.605469 -57.285156 57.660156 -62.558594 C 46.542969 -66.707031 36.746094 -69.53125 36.746094 -77.257812 C 36.746094 -83.289062 41.265625 -87.433594 50.878906 -87.433594 C 58.601562 -87.433594 65.953125 -83.855469 73.488281 -78.390625 L 85.925781 -95.160156 C 77.257812 -101.753906 65.386719 -108.160156 50.125 -108.160156 C 26.003906 -108.160156 10.742188 -94.78125 10.742188 -75.9375 C 10.742188 -58.226562 25.628906 -50.125 39.007812 -45.035156 C 50.125 -40.703125 61.054688 -37.121094 61.054688 -29.207031 C 61.054688 -22.613281 56.34375 -18.089844 45.789062 -18.089844 C 35.992188 -18.089844 26.945312 -22.234375 17.523438 -29.585938 L 4.898438 -12.25 C 15.453125 -3.582031 30.902344 2.636719 45.035156 2.636719 Z M 45.035156 2.636719 "/></g></g></g><g fill="#ffffff" fill-opacity="1"><g transform="translate(224.333182, 233.426612)"><g/></g></g><g fill="#ffffff" fill-opacity="1"><g transform="translate(267.102562, 233.426612)"><g><path d="M 14.886719 0 L 42.585938 0 L 42.585938 -72.546875 C 49.933594 -80.460938 56.71875 -84.417969 62.75 -84.417969 C 72.734375 -84.417969 77.636719 -78.765625 77.636719 -62.371094 L 77.636719 0 L 105.148438 0 L 105.148438 -72.546875 C 112.683594 -80.460938 119.46875 -84.417969 125.496094 -84.417969 C 135.484375 -84.417969 140.195312 -78.765625 140.195312 -62.371094 L 140.195312 0 L 167.894531 0 L 167.894531 -65.765625 C 167.894531 -92.332031 157.53125 -108.160156 135.109375 -108.160156 C 121.351562 -108.160156 111.175781 -99.871094 101.566406 -89.695312 C 96.480469 -101.378906 87.621094 -108.160156 72.546875 -108.160156 C 58.792969 -108.160156 48.992188 -100.625 40.136719 -91.390625 L 39.570312 -91.390625 L 37.5 -105.523438 L 14.886719 -105.523438 Z M 14.886719 0 "/></g></g></g><g fill="#ffffff" fill-opacity="1"><g transform="translate(448.731013, 233.426612)"><g/></g></g><g fill="#ffffff" fill-opacity="1"><g transform="translate(491.500394, 233.426612)"><g><path d="M 59.734375 2.636719 C 71.417969 2.636719 84.230469 -1.320312 94.40625 -10.175781 L 83.289062 -28.453125 C 77.445312 -23.554688 70.285156 -19.972656 62.75 -19.972656 C 47.675781 -19.972656 36.554688 -32.789062 36.554688 -52.761719 C 36.554688 -72.546875 47.484375 -85.550781 63.691406 -85.550781 C 69.53125 -85.550781 74.433594 -83.101562 79.707031 -78.578125 L 92.898438 -96.480469 C 85.171875 -103.074219 75.1875 -108.160156 62.183594 -108.160156 C 33.542969 -108.160156 8.292969 -87.8125 8.292969 -52.761719 C 8.292969 -17.714844 30.527344 2.636719 59.734375 2.636719 Z M 59.734375 2.636719 "/></g></g></g></svg>